<svg xmlns="http://www.w3.org/2000/svg" viewBox="0 0 880 260" fill="none" aria-hidden="true">
  <g fill="currentColor">
    <path d="M52 188c0-3 1.5-5.5 4-7l38-22c5-3 11-5.5 17-7l52-12c10-2.5 21-7 31-13l40-25c20-12 43-19 67-21l138-9c34-2 68 4 99 17l66 28c11 5 23 8 35 9l112 11c20 2 39 9 56 19l28 17c5 3 8 8 8 14v18c0 4-3 7-7 7h-43c-3 0-6-1-8-3l-15-15c-12-12-28-18-45-18s-33 6-45 18l-15 15c-2 2-5 3-8 3H236c-3 0-6-1-8-3l-15-15c-12-12-28-18-45-18s-33 6-45 18l-15 15c-2 2-5 3-8 3H59c-4 0-7-3-7-7v-13z"/>
    <circle cx="168" cy="195" r="32"/>
    <circle cx="168" cy="195" r="14" fill="#fff"/>
    <circle cx="168" cy="195" r="9"/>
    <circle cx="688" cy="195" r="32"/>
    <circle cx="688" cy="195" r="14" fill="#fff"/>
    <circle cx="688" cy="195" r="9"/>
    <path d="M278 100c14-9 30-15 47-17l138-9c25-1.5 51 2.5 73 12l52 22H290c-7 0-13-3-17-9l-3-4c-1-2-1-4 0-6 2-3 5-7 8-9z" opacity=".22"/>
  </g>
</svg>
